<?xml version="1.0" encoding="utf-8"?>
<!-- Generator: Adobe Illustrator 17.0.0, SVG Export Plug-In . SVG Version: 6.00 Build 0)  -->
<!DOCTYPE svg PUBLIC "-//W3C//DTD SVG 1.1//EN" "http://www.w3.org/Graphics/SVG/1.1/DTD/svg11.dtd">
<svg version="1.1" id="Layer_1" xmlns="http://www.w3.org/2000/svg" xmlns:xlink="http://www.w3.org/1999/xlink" x="0px" y="0px"
	 width="360px" height="360px" viewBox="0 0 360 360" enable-background="new 0 0 360 360" xml:space="preserve">
<path fill="#15569D" d="M16.043,360v-7.429c0,0,3.366-9,10.033-3c0,0,14-4.667,11.333-10.667l5.333-11.667l5.667,4.667
	c0,0,4.667-9,7.667-7.667c0,0-0.667-13.333,9-16.667c0,0-1-4.333,5.333-4v-2.667l2.333-2l2.667-6.333l4.667-1.336l4.333-5.331
	l2-5.667c0,0,8-7.333,6.667-17l3-7.667l7.333,4c0,0,1.667-6.333,7-11l5.667-15l3.333-2.667h3.333l1.667-2.667h2l4.667-5.332v2.665h3
	l4.667,6.333c0,0,2,8,9.333,8.333l3.333,3h4v2.333l7.333-3.333l5,2.667l6,3.667l5-0.333c0,0,3,6.667,7.333,0c0,0,12.333-1,13,4.333
	c0,0,8.667-5.667,10.667,4.667c0,0,2,6.667,4.333,6.667c0,0-2,3.333,2.667,5.667c0,0,15,28,16.333,33.667l3.333,7l12,13
	c0,0,7.667-5.667,14.333,2.333c0,0,6.333,7.333,12,1l3.333,1.333c0,0,9-5.333,10.667-11.667v-5v-2l1.333-3l1.333-5l3.667-1.667
	v-3.667l3.333,4.333l3-1l3.333-1.667l3.333,3.333l3.333,7.333l5,6.667l6.333,8l9.333,6l3.333,3.333h4l4.39,8l6.61,7c0,0,2,4,3,4.667
	c1,0.667,6.838-1,6.838-1V360H16.043z"/>
<path d="M112.5,132.5c-14-50-71-32.5-71-32.5l-4-4c-11.5,5,0,20,0,20c-4,16,7.5,19.5,7.5,19.5c-2.5,1,2.5,16.5,2.5,16.5L43,174.5
	c5.5,16,16,8.5,16,8.5c5.5-7.5,16-7,16-7C116.93,173,112.5,132.5,112.5,132.5z M67.5,168.5L65,123C133,135.5,67.5,168.5,67.5,168.5z
	"/>
<path d="M138,145.75v-5.37c0,0-39.23-3.38-25.36,35.12C112.64,175.5,155,193,138,145.75z M123,155c0,0,5.03-5.79,11.5-2.5
	C134.5,152.5,142,172,123,155z"/>
<path d="M160,66.133c0,0-22,106.205,0,112.536c0,0,3-4.331,8,0l4-3.169c0,0,7-22.028,19-16.014c0,0,61,61.014,75.5,60.514
	c0,0,37.5,1,0-25c0,0-79.5-34.744-67-54.622c0,0,22-12.378-1-37.878c0,0-0.5,19.5-32,31C166.5,133.5,167.5,69.766,160,66.133z"/>
<path d="M271,135c7.5-6,0-33,0-33c-4-1.5-9.5-17-9.5-17c-5.5-2-5,23.5-5,23.5c4.5,7.5-4.51,19.5-4.51,19.5
	c-5.02-3-16.99,3.5-16.99,3.5c7,1.5-2.5,4.5-2.5,4.5c-21.5,28.5,17,35,17,35c19.5-11,25-5.5,25-5.5l3.5-10
	C274.5,155,271,135,271,135z M237.5,148.5c-1-7.5,14.49-11.5,14.49-11.5C258.97,154,237.5,148.5,237.5,148.5z"/>
<path d="M318,127.94l-2.5-4.94c0,0-34.5,2.7-30,26.35c0,0,15.5,32.62,39,10.14C324.5,159.49,332,135.89,318,127.94z M300.5,144.48
	c7.76-15.2,13-4.18,13-4.18C307,157.61,300.5,144.48,300.5,144.48z"/>
</svg>
